<?xml version="1.0" standalone="no"?>
<!DOCTYPE svg PUBLIC "-//W3C//DTD SVG 20010904//EN" "http://www.w3.org/TR/2001/REC-SVG-20010904/DTD/svg10.dtd">
<!-- Created using Krita: https://krita.org -->
<svg xmlns="http://www.w3.org/2000/svg" 
    xmlns:xlink="http://www.w3.org/1999/xlink"
    xmlns:krita="http://krita.org/namespaces/svg/krita"
    xmlns:sodipodi="http://sodipodi.sourceforge.net/DTD/sodipodi-0.dtd"
    width="876pt"
    height="506pt"
    viewBox="0 0 876 506">
<defs>
  <linearGradient id="gradient0" gradientUnits="objectBoundingBox" x1="0.00686483377248504" y1="0.496015874393286" x2="0.982790266285145" y2="0.501746880966609" spreadMethod="pad">
   <stop stop-color="#fda311" offset="0" stop-opacity="1"/>
   <stop stop-color="#ffff9c" offset="1" stop-opacity="1"/>
  </linearGradient>
  <linearGradient id="gradient1" gradientUnits="objectBoundingBox" x1="0.501862592758988" y1="0.00400516766387871" x2="0.507544882892644" y2="1.01189561785672" spreadMethod="pad">
   <stop stop-color="#0307fe" offset="0" stop-opacity="1"/>
   <stop stop-color="#b4bcf6" offset="1" stop-opacity="1"/>
  </linearGradient>
  <linearGradient id="gradient2" gradientUnits="objectBoundingBox" x1="0.500044578133094" y1="-0.000394077739592547" x2="0.500263109092302" y2="1" spreadMethod="pad">
   <stop stop-color="#890213" offset="0" stop-opacity="1"/>
   <stop stop-color="#f54d64" offset="1" stop-opacity="1"/>
  </linearGradient>
 </defs>
<g id="group0" transform="translate(0, 0)" fill="none">
  <path id="shape0" transform="matrix(1.00012600431865 0 0 0.999450894567807 601.710442685588 82.6076147887129)" fill="url(#gradient0)" fill-rule="evenodd" stroke-opacity="0.466666666666667" stroke="#000000" stroke-width="1" stroke-linecap="square" stroke-linejoin="bevel" d="M0 148.129L217.005 24C217.175 37 217.335 50 217.505 63L64.505 148.5L218.262 235.522L217.262 273.543L0 148.129M260.755 0L237.135 13.125L237.255 51L268.005 32.875L268.005 264.25L237.255 246.25L236.755 285.75L261.255 299L260.755 266.75L274.255 273.25L274.005 22.5L260.755 30.75L260.755 0" sodipodi:nodetypes="cccccccccccccccccccc"/>
  <path id="shape1" transform="matrix(1.00012600431865 0 0 0.999450894567807 125.679468284033 0)" fill="url(#gradient1)" fill-rule="evenodd" stroke-opacity="0.498039215686275" stroke="#000000" stroke-width="1" stroke-linecap="square" stroke-linejoin="bevel" d="M0.472 170.324L24.837 170.324L24.483 394.124L24.99 396.228L25.564 398.273L26.204 400.259L26.908 402.186L27.673 404.054L28.497 405.861L29.379 407.607L30.315 409.292L31.304 410.915L32.343 412.476L33.43 413.975L34.564 415.41L35.741 416.782L36.961 418.09L38.219 419.334L39.515 420.512L40.847 421.625L42.211 422.673L43.606 423.653L45.029 424.568L46.479 425.415L47.953 426.194L49.45 426.905L50.966 427.547L52.499 428.121L54.049 428.624L55.611 429.058L57.185 429.421L58.767 429.713L60.356 429.934L61.95 430.083L63.546 430.16L65.143 430.164L66.737 430.094L68.327 429.951L69.911 429.734L71.486 429.442L73.05 429.074L74.602 428.632L76.138 428.113L77.657 427.517L79.156 426.845L80.634 426.095L82.088 425.268L83.516 424.362L84.915 423.377L86.284 422.313L87.621 421.169L88.922 419.945L90.187 418.64L91.412 417.254L92.596 415.786L93.737 414.237L94.832 412.604L95.878 410.889L96.875 409.09L97.82 407.208L98.71 405.241L99.543 403.189L100.317 401.052L101.03 398.829L101.681 396.52L102.265 394.124L102.972 288.765L127.367 288.765L127.014 394.124L126.821 397.903L126.453 401.557L125.914 405.085L125.211 408.488L124.349 411.766L123.334 414.92L122.171 417.949L120.868 420.853L119.429 423.633L117.86 426.29L116.168 428.822L114.357 431.231L112.434 433.517L110.404 435.679L108.274 437.719L106.048 439.635L103.734 441.429L101.336 443.101L98.86 444.65L96.313 446.078L93.699 447.384L91.026 448.568L88.298 449.63L85.521 450.572L82.702 451.393L79.846 452.092L76.958 452.672L74.045 453.13L71.112 453.469L68.166 453.688L65.211 453.786L62.255 453.766L59.301 453.626L56.357 453.366L53.429 452.988L50.521 452.491L47.64 451.875L44.791 451.141L41.981 450.289L39.215 449.319L36.498 448.231L33.838 447.025L31.239 445.702L28.707 444.262L26.248 442.705L23.868 441.031L21.573 439.24L19.368 437.333L17.26 435.31L15.253 433.171L13.355 430.916L11.57 428.545L9.904 426.059L8.364 423.458L6.955 420.742L5.683 417.911L4.553 414.966L3.571 411.906L2.744 408.732L2.077 405.443L1.576 402.042L1.246 398.526L1.094 394.897L0.472 170.324M127.039 244.966L102.039 245.091L103.164 90.091L114.613 90.135L126.062 90.18L129.879 90.195L137.512 90.224L145.145 90.254L152.778 90.284L160.411 90.314L183.309 90.403L206.208 90.492L213.841 90.522L221.474 90.552L225.291 90.567L244.373 90.641L278.721 90.775L305.436 90.879L316.886 90.924L343.601 91.028L350.511 91.858L357.21 92.979L363.698 94.382L369.975 96.057L376.039 97.995L381.891 100.186L387.529 102.62L392.953 105.29L398.162 108.184L403.155 111.294L407.933 114.611L412.494 118.124L416.838 121.825L420.965 125.704L424.872 129.751L428.561 133.958L432.03 138.315L435.279 142.812L438.307 147.441L441.114 152.191L443.698 157.053L446.06 162.018L448.198 167.076L450.112 172.219L451.802 177.436L453.267 182.719L454.505 188.057L455.518 193.442L456.303 198.863L456.861 204.313L457.191 209.78L457.291 215.257L457.162 220.733L456.803 226.198L456.214 231.645L455.393 237.063L454.34 242.442L453.054 247.774L451.536 253.049L449.783 258.257L447.796 263.39L445.574 268.437L443.117 273.39L440.423 278.238L437.493 282.974L434.325 287.586L430.918 292.066L427.274 296.405L423.389 300.592L419.265 304.619L414.901 308.477L410.295 312.154L405.447 315.644L400.357 318.935L395.024 322.019L389.448 324.885L383.627 327.526L377.561 329.931L371.25 332.091L364.693 333.996L357.889 335.637L350.838 337.005L343.539 338.091L181.976 338.153L182.039 481.153L414.164 481.216L414.101 326.153L415.363 325.432L416.594 324.692L417.797 323.936L418.971 323.164L420.119 322.376L421.24 321.572L422.336 320.753L423.408 319.92L424.457 319.074L425.483 318.214L426.488 317.342L427.472 316.457L428.437 315.561L429.384 314.653L430.313 313.736L431.225 312.808L432.122 311.871L433.003 310.924L433.871 309.97L434.727 309.008L435.57 308.038L436.403 307.061L437.225 306.079L438.039 305.091L438.101 506.278L156.976 506.153L156.976 315.153L343.539 315.091L349.304 314.081L354.879 312.862L360.262 311.441L365.455 309.823L370.457 308.016L375.268 306.028L379.889 303.863L384.321 301.531L388.563 299.036L392.616 296.387L396.48 293.59L400.155 290.652L403.642 287.58L406.941 284.381L410.052 281.061L412.976 277.627L415.712 274.087L418.261 270.447L420.624 266.714L422.8 262.895L424.79 258.997L426.594 255.026L428.212 250.99L429.646 246.896L430.894 242.749L431.957 238.558L432.836 234.328L433.531 230.068L434.042 225.783L434.369 221.481L434.513 217.168L434.474 212.851L434.252 208.538L433.847 204.234L433.26 199.948L432.492 195.685L431.541 191.453L430.409 187.258L429.096 183.107L427.603 179.008L425.928 174.967L424.074 170.991L422.039 167.087L419.825 163.261L417.431 159.521L414.858 155.873L412.106 152.325L409.176 148.883L406.067 145.553L402.78 142.344L399.316 139.261L395.673 136.312L391.854 133.503L387.858 130.842L383.685 128.335L379.336 125.989L374.81 123.811L370.109 121.808L365.233 119.986L360.181 118.353L354.954 116.915L349.552 115.679L343.976 114.653L128.226 115.028L127.039 244.966M0.351 126.778L25.726 126.778L25.898 26.428L413.657 26.075L414.011 102.973L415.541 103.823L417.009 104.687L418.419 105.563L419.771 106.452L421.07 107.352L422.316 108.263L423.512 109.185L424.661 110.118L425.765 111.06L426.826 112.011L427.847 112.97L428.83 113.938L429.776 114.914L430.69 115.896L431.572 116.886L432.425 117.881L433.252 118.883L434.055 119.889L434.836 120.9L435.597 121.915L436.341 122.934L437.071 123.956L437.787 124.981L438.229 0L0 0L0.351 126.778" sodipodi:nodetypes="cccccccccccccccccccccccccccccccccccccccccccccccccccccccccccccccccccccccccccccccccccccccccccccccccccccccccccccccccccccccccccccccccccccccccccccccccccccccccccccccccccccccccccccccccccccccccccccccccccccccccccccccccccccccccccccccccccccccccccccccccccccccccccccccccccccccccccccccccccccccccccccccccccccccccccccccccccccccccccccccccccccccccccccccccccccccc"/>
  <path id="shape2" transform="matrix(1.00012600431865 0 0 0.999450894567807 1.13686837721616e-13 135.899376754642)" fill="url(#gradient2)" fill-rule="evenodd" stroke-opacity="0.486274509803922" stroke="#000000" stroke-width="1" stroke-linecap="square" stroke-linejoin="bevel" d="M218.686 0L218.863 24.042L68.603 23.358L65.775 24.046L63.042 24.819L60.406 25.676L57.864 26.613L55.418 27.626L53.067 28.714L50.811 29.873L48.65 31.1L46.583 32.393L44.61 33.748L42.732 35.163L40.947 36.634L39.256 38.16L37.659 39.735L36.156 41.359L34.745 43.028L33.428 44.739L32.203 46.489L31.071 48.275L30.032 50.094L29.085 51.944L28.23 53.821L27.467 55.722L26.796 57.646L26.217 59.587L25.729 61.545L25.332 63.516L25.026 65.496L24.811 67.483L24.687 69.475L24.653 71.467L24.709 73.458L24.856 75.444L25.093 77.423L25.419 79.391L25.835 81.345L26.34 83.283L26.935 85.202L27.619 87.099L28.391 88.97L29.252 90.813L30.202 92.626L31.24 94.404L32.366 96.146L33.58 97.848L34.882 99.507L36.272 101.121L37.748 102.686L39.312 104.2L40.964 105.659L42.702 107.061L44.526 108.403L46.437 109.682L48.435 110.895L50.518 112.039L52.688 113.111L54.943 114.108L57.284 115.028L59.71 115.867L62.222 116.622L64.819 117.291L67.5 117.871L70.266 118.358L116.774 118.705L116.774 142.835L69.266 143.358L65.043 142.743L60.95 141.967L56.987 141.037L53.153 139.958L49.45 138.734L45.877 137.37L42.436 135.873L39.126 134.248L35.947 132.499L32.901 130.632L29.987 128.652L27.206 126.564L24.558 124.375L22.044 122.088L19.663 119.709L17.417 117.243L15.305 114.697L13.328 112.074L11.486 109.38L9.779 106.621L8.209 103.801L6.775 100.927L5.477 98.002L4.316 95.033L3.292 92.024L2.407 88.981L1.659 85.91L1.049 82.815L0.578 79.701L0.246 76.574L0.053 73.44L0 70.303L0.087 67.168L0.314 64.042L0.682 60.928L1.191 57.833L1.842 54.762L2.634 51.719L3.568 48.711L4.645 45.741L5.865 42.817L7.227 39.942L8.733 37.123L10.383 34.364L12.178 31.67L14.116 29.048L16.2 26.501L18.428 24.036L20.802 21.657L23.323 19.371L25.989 17.181L28.802 15.094L31.762 13.115L34.869 11.248L38.123 9.499L41.526 7.874L45.077 6.377L48.776 5.015L52.625 3.791L56.623 2.712L60.77 1.782L65.068 1.007L69.516 0.392L218.686 0M262.266 0.358L408.266 0.358L412.776 0.869L417.141 1.556L421.361 2.412L425.434 3.432L429.362 4.611L433.144 5.941L436.781 7.417L440.272 9.034L443.617 10.786L446.816 12.666L449.869 14.669L452.777 16.79L455.539 19.021L458.154 21.358L460.624 23.794L462.948 26.324L465.126 28.942L467.158 31.641L469.044 34.417L470.784 37.263L472.378 40.173L473.826 43.142L475.128 46.164L476.284 49.232L477.293 52.342L478.156 55.487L478.873 58.661L479.444 61.858L479.869 65.074L480.147 68.301L480.279 71.533L480.265 74.766L480.104 77.994L479.798 81.209L479.344 84.407L478.744 87.582L477.998 90.728L477.105 93.839L476.066 96.908L474.881 99.932L473.548 102.902L472.07 105.814L470.444 108.662L468.672 111.44L466.754 114.142L464.688 116.763L462.476 119.295L460.118 121.734L457.612 124.074L454.96 126.309L452.161 128.432L449.216 130.439L446.123 132.323L442.884 134.078L439.497 135.699L435.964 137.18L432.284 138.515L428.457 139.698L424.483 140.723L420.362 141.584L416.094 142.276L411.679 142.792L407.117 143.128L160.266 142.358L160.88 118.529L408.029 117.934L410.875 117.692L413.64 117.336L416.323 116.87L418.925 116.297L421.443 115.621L423.879 114.844L426.231 113.972L428.499 113.007L430.683 111.953L432.781 110.814L434.794 109.593L436.721 108.295L438.561 106.922L440.314 105.478L441.98 103.967L443.557 102.392L445.046 100.758L446.446 99.067L447.757 97.323L448.977 95.53L450.107 93.692L451.146 91.812L452.094 89.894L452.949 87.941L453.712 85.958L454.382 83.947L454.958 81.912L455.441 79.857L455.829 77.785L456.122 75.701L456.319 73.607L456.421 71.508L456.426 69.406L456.334 67.306L456.145 65.212L455.857 63.126L455.472 61.052L454.987 58.995L454.403 56.957L453.719 54.943L452.935 52.955L452.049 50.998L451.062 49.075L449.974 47.19L448.783 45.346L447.489 43.548L446.091 41.797L444.59 40.1L442.984 38.457L441.274 36.875L439.458 35.355L437.536 33.902L435.508 32.52L433.373 31.211L431.13 29.98L428.78 28.83L426.321 27.765L423.754 26.789L421.077 25.904L418.29 25.115L415.393 24.425L412.385 23.838L409.266 23.358L262.266 23.358L262.266 0.358" sodipodi:nodetypes="cccccccccccccccccccccccccccccccccccccccccccccccccccccccccccccccccccccccccccccccccccccccccccccccccccccccccccccccccccccccccccccccccccccccccccccccccccccccccccccccccccccccccccccccccccccccccccccccccccccccccccccccccccccccccccccccccccccccccccccccccccccccccccccccccccccccccc"/>
 </g>
</svg>
